<?xml version="1.0" standalone="no"?>
<!DOCTYPE svg PUBLIC "-//W3C//DTD SVG 20010904//EN"
 "http://www.w3.org/TR/2001/REC-SVG-20010904/DTD/svg10.dtd">
<svg version="1.0" xmlns="http://www.w3.org/2000/svg"
 width="4096.000000pt" height="1076.000000pt" viewBox="0 0 4096.000000 1076.000000"
 preserveAspectRatio="xMidYMid meet">
<metadata>
Created by potrace 1.16, written by Peter Selinger 2001-2019
</metadata>
<g transform="translate(0.000000,1076.000000) scale(0.100000,-0.100000)"
fill="#000000" stroke="none">
<path d="M17725 10728 c-111 -29 -439 -125 -1185 -346 -575 -171 -875 -258
-1191 -348 l-275 -78 -21 -56 c-12 -30 -71 -181 -133 -335 -61 -154 -141 -358
-176 -453 -85 -228 -111 -285 -126 -280 -7 3 -23 39 -35 81 -12 42 -24 81 -28
87 -13 21 -60 8 -207 -61 -84 -39 -214 -97 -288 -129 -74 -31 -178 -78 -231
-103 -113 -54 -148 -89 -278 -273 -47 -65 -146 -200 -221 -299 -75 -99 -268
-360 -430 -580 -371 -504 -458 -611 -639 -794 -340 -342 -697 -576 -1186 -776
l-150 -62 -12 -224 c-6 -123 -11 -277 -12 -341 -1 -114 0 -118 22 -123 35 -7
844 -122 1022 -145 181 -23 458 -62 463 -65 2 -2 18 -125 37 -275 18 -149 35
-273 37 -275 6 -6 260 95 367 145 56 28 137 70 178 95 41 25 79 43 84 39 5 -3
8 0 7 8 -2 7 5 12 14 12 10 -1 16 3 15 10 -1 6 6 10 15 10 10 -1 16 2 15 6 -1
5 25 29 58 55 181 141 373 345 494 525 104 155 171 291 284 570 52 129 130
316 172 415 216 505 442 1042 480 1140 24 61 76 189 118 285 221 516 469 1104
529 1255 22 55 56 126 75 159 68 111 203 236 319 294 22 11 209 71 415 132
206 61 525 159 709 217 184 58 468 147 630 198 162 51 354 110 425 130 155 44
165 49 165 78 0 25 -34 142 -105 360 l-47 147 -32 -1 c-17 -1 -80 -14 -141
-31z"/>
<path d="M14970 9930 c-14 -4 -162 -48 -330 -98 -889 -263 -1265 -373 -1355
-397 -55 -15 -350 -101 -655 -192 -305 -90 -728 -215 -940 -278 -212 -63 -430
-126 -485 -140 -123 -33 -184 -65 -240 -127 -77 -86 -113 -203 -95 -311 21
-130 221 -819 239 -825 14 -5 230 88 646 278 453 207 890 404 1136 514 119 52
252 112 295 132 305 141 833 382 899 409 44 18 170 74 279 124 110 50 201 89
203 87 2 -1 14 -38 27 -81 12 -44 28 -81 34 -83 7 -2 12 2 12 9 0 19 87 247
238 619 74 184 137 343 140 353 5 18 -7 20 -48 7z"/>
<path d="M7929 7776 c-6 -7 -549 -170 -754 -228 -99 -27 -181 -51 -183 -53 -1
-1 15 -76 37 -166 22 -90 67 -276 100 -414 33 -137 121 -498 196 -801 l136
-551 152 -66 c657 -286 839 -365 843 -370 3 -2 -62 -26 -143 -51 -357 -113
-634 -203 -1328 -430 -1048 -344 -1013 -333 -2065 -621 -107 -29 -360 -98
-562 -154 -202 -56 -373 -101 -381 -101 -39 0 -44 -19 -82 -330 -35 -293 -120
-947 -149 -1155 -8 -55 -10 -107 -6 -115 6 -9 76 -29 202 -57 359 -79 843
-182 878 -187 85 -13 263 -55 273 -65 7 -7 16 -122 24 -311 7 -165 13 -331 15
-368 3 -61 5 -67 25 -70 24 -3 152 67 803 441 454 261 660 379 865 494 160 90
583 298 1110 548 154 73 372 177 485 232 113 55 297 145 410 200 113 55 268
124 345 152 181 68 454 174 785 305 l264 105 111 -107 c60 -59 135 -130 165
-158 143 -131 241 -224 440 -414 118 -114 285 -271 370 -350 85 -79 220 -207
300 -285 132 -129 202 -195 375 -354 33 -30 74 -68 91 -83 l31 -29 18 158 c18
159 78 624 221 1706 l78 588 -38 317 c-21 174 -41 331 -45 347 -7 30 -8 30
-122 47 -157 24 -475 67 -535 74 -43 4 -452 63 -766 111 -82 12 -108 19 -108
31 0 8 7 139 15 291 23 435 24 482 14 475 -5 -3 -73 37 -152 89 -78 52 -221
144 -317 204 -96 61 -274 175 -395 255 -332 218 -403 264 -615 398 -107 68
-350 225 -540 350 -190 124 -363 237 -385 250 -22 13 -128 81 -236 152 -156
102 -204 128 -231 128 -19 0 -37 -2 -39 -4z"/>
<path d="M6870 7460 c-14 -5 -347 -106 -740 -225 -393 -118 -725 -219 -737
-225 -13 -5 -23 -17 -23 -26 0 -27 261 -868 274 -880 6 -7 130 -28 276 -49
246 -34 287 -43 565 -121 298 -84 387 -116 715 -259 91 -40 166 -71 168 -70 1
1 -56 238 -128 526 -176 705 -220 887 -276 1132 -26 115 -52 207 -58 206 -6 0
-22 -4 -36 -9z"/>
<path d="M35802 5109 c-45 -94 -82 -174 -82 -178 0 -6 226 -91 547 -206 l122
-44 56 104 c30 56 55 107 55 112 0 5 -62 47 -137 93 -76 46 -212 131 -302 187
-90 57 -166 103 -170 103 -4 0 -45 -77 -89 -171z"/>
<path d="M35551 4650 c-274 -158 -361 -211 -361 -220 0 -12 100 -205 109 -208
3 -1 96 34 206 78 109 44 204 80 210 80 5 0 82 -27 170 -61 273 -104 286 -109
280 -100 -3 5 20 55 50 112 30 56 54 103 52 104 -1 2 -31 18 -67 38 -36 19
-161 87 -278 151 -118 64 -214 116 -215 115 -1 0 -71 -41 -156 -89z"/>
<path d="M16360 4149 c0 -6 25 -71 56 -144 l56 -133 -132 -279 c-129 -270
-320 -681 -320 -688 0 -2 -79 -171 -245 -520 -26 -55 -53 -111 -60 -125 l-13
-25 233 3 232 3 65 152 65 152 359 3 359 2 29 -72 c16 -40 45 -110 64 -155
l34 -83 234 0 c150 0 234 4 234 10 0 6 -70 169 -156 363 -86 193 -194 440
-239 547 -45 107 -152 353 -237 545 -86 193 -166 374 -178 403 l-22 52 -209 0
c-146 0 -209 -3 -209 -11z m401 -989 l97 -240 -199 0 -199 0 18 43 c144 356
177 437 182 437 3 0 48 -108 101 -240z"/>
<path d="M22362 4145 c-309 -56 -554 -226 -701 -486 -133 -236 -149 -581 -38
-851 39 -98 81 -163 167 -265 212 -250 584 -374 953 -318 109 16 245 59 335
104 93 47 218 147 292 234 341 400 289 1042 -109 1361 -33 27 -58 53 -54 59 3
6 1 7 -4 4 -6 -4 -42 11 -79 33 -163 95 -344 141 -556 139 -73 0 -166 -7 -206
-14z m362 -395 c104 -26 187 -72 257 -142 111 -112 155 -248 146 -452 -8 -185
-53 -296 -164 -402 -59 -57 -167 -115 -253 -135 -79 -19 -231 -15 -312 9 -182
52 -331 214 -379 412 -20 80 -17 251 5 324 43 145 150 282 265 340 127 65 293
82 435 46z"/>
<path d="M24587 4145 c-392 -74 -690 -341 -783 -701 -34 -134 -42 -288 -20
-414 38 -219 116 -370 266 -520 141 -140 270 -212 479 -267 85 -23 116 -26
266 -26 139 -1 187 3 262 21 180 41 321 113 440 226 131 124 232 306 249 451
l7 54 -234 3 -234 3 -1 -22 c-3 -38 -60 -148 -100 -193 -187 -207 -563 -207
-779 1 -114 109 -167 245 -168 429 0 186 44 303 157 415 171 170 431 214 630
107 114 -61 216 -205 253 -354 l16 -68 230 0 230 0 -7 58 c-18 150 -68 285
-157 418 -99 147 -202 235 -364 310 -123 57 -218 76 -400 80 -112 2 -183 -1
-238 -11z"/>
<path d="M28590 4156 c0 -2 26 -67 58 -144 l59 -139 -42 -89 c-301 -637 -387
-820 -440 -939 -35 -77 -111 -241 -169 -364 -58 -123 -106 -228 -106 -233 0
-4 102 -7 227 -6 l227 3 65 153 65 152 359 -2 359 -3 59 -145 c33 -79 58 -149
56 -155 -3 -7 75 -10 243 -10 l247 0 -30 65 c-115 253 -390 882 -495 1130 -34
80 -119 276 -190 435 l-128 290 -212 3 c-117 1 -212 0 -212 -2z m445 -1095
c30 -73 55 -135 55 -137 0 -2 -89 -4 -199 -4 l-198 0 72 178 c40 97 85 207
101 243 l28 65 43 -105 c24 -58 69 -166 98 -240z"/>
<path d="M30664 4145 c-430 -78 -737 -383 -804 -798 -17 -106 -8 -308 19 -412
70 -269 274 -512 525 -625 317 -144 749 -126 1021 43 199 123 333 298 385 502
33 127 55 115 -213 115 l-233 0 -13 -50 c-55 -215 -316 -353 -581 -306 -180
32 -322 139 -401 302 -195 403 67 853 496 854 233 0 442 -179 488 -419 l12
-61 233 0 234 0 -6 48 c-15 102 -48 218 -84 296 -126 269 -376 460 -667 511
-105 18 -312 18 -411 0z"/>
<path d="M35509 4145 c-193 -36 -376 -128 -515 -258 -132 -123 -213 -258 -266
-444 -20 -68 -23 -100 -22 -253 0 -190 14 -263 71 -393 89 -205 285 -402 488
-492 224 -99 509 -120 760 -55 96 24 246 95 329 154 111 79 227 217 289 341
76 152 101 268 100 460 -1 168 -28 289 -94 422 -127 251 -350 426 -641 503
-108 29 -383 37 -499 15z m354 -390 c134 -28 278 -129 343 -241 53 -91 76
-171 81 -289 5 -91 2 -125 -16 -194 -74 -296 -343 -470 -645 -417 -210 36
-363 161 -433 354 -31 84 -42 252 -24 359 52 308 361 499 694 428z"/>
<path d="M39767 4145 c-234 -45 -459 -180 -592 -358 -230 -305 -247 -789 -39
-1125 61 -98 197 -235 294 -294 252 -156 580 -198 876 -112 277 80 484 284
551 546 l17 68 43 0 43 0 0 155 0 155 -470 2 -470 3 0 -160 0 -160 210 3 c115
1 210 0 210 -3 0 -20 -46 -89 -86 -129 -111 -109 -329 -156 -507 -110 -95 24
-215 93 -202 115 3 5 -1 6 -9 3 -16 -6 -91 88 -126 156 -83 163 -85 394 -6
565 33 72 115 177 133 171 8 -3 11 -2 8 4 -9 15 95 79 165 101 35 11 96 22
135 26 136 11 303 -52 390 -148 42 -47 92 -147 101 -201 l7 -38 228 0 c261 0
238 -11 215 100 -33 156 -97 278 -204 392 -117 123 -266 212 -437 258 -106 29
-361 37 -478 15z"/>
<path d="M33970 3758 l0 -388 -410 0 -410 0 0 385 0 385 -227 0 -228 0 3 -950
2 -950 225 0 225 0 0 365 0 365 410 0 410 0 0 -367 0 -368 225 3 225 3 0 949
0 949 -225 3 -225 3 0 -387z"/>
<path d="M13940 3741 l0 -401 -75 0 -75 0 0 -145 0 -145 75 0 75 0 0 -405 0
-405 423 0 c466 0 542 7 695 60 296 103 505 329 588 635 26 98 27 400 2 493
-87 313 -305 548 -603 650 -152 51 -183 54 -657 59 l-448 5 0 -401z m914 5
c137 -47 230 -124 295 -246 40 -74 60 -156 68 -270 16 -257 -101 -484 -299
-574 -104 -48 -156 -56 -358 -56 l-180 0 0 225 0 226 178 -3 177 -3 -3 148 -3
147 -175 0 -174 0 0 221 0 222 198 -5 c181 -5 203 -7 276 -32z"/>
<path d="M17700 3955 l0 -185 125 0 125 0 0 -580 0 -580 -125 0 -125 0 0 -185
0 -185 470 0 470 0 0 185 0 185 -125 0 -125 0 0 580 0 580 125 0 125 0 0 185
0 185 -470 0 -470 0 0 -185z"/>
<path d="M19540 3188 l0 -953 225 3 225 3 0 364 0 365 415 0 415 0 0 -365 0
-365 220 0 220 0 0 950 0 950 -220 0 -220 0 0 -385 0 -385 -415 0 -415 0 0
385 0 385 -225 0 -225 0 0 -952z"/>
<path d="M26630 3190 l0 -950 635 0 635 0 0 195 0 195 -415 0 -415 0 0 755 0
755 -220 0 -220 0 0 -950z"/>
<path d="M37028 3188 l-3 -953 208 3 207 3 0 619 0 619 133 -140 c72 -77 186
-200 252 -273 66 -73 170 -187 230 -253 121 -132 175 -215 205 -311 23 -72 40
-170 40 -224 l0 -38 200 0 200 0 0 950 0 950 -200 0 -200 0 -2 -531 -3 -530
-250 277 c-137 153 -331 368 -429 478 -98 111 -200 225 -227 254 l-48 52 -155
0 -156 0 -2 -952z"/>
<path d="M3772 3717 c-57 -16 -73 -25 -77 -41 -3 -12 -52 -376 -110 -811 -57
-434 -107 -805 -110 -823 -4 -21 -3 -32 4 -28 5 3 108 -14 228 -39 120 -25
313 -66 428 -90 457 -96 688 -149 701 -162 9 -9 14 -36 14 -71 1 -127 28 -704
34 -709 3 -3 37 13 76 36 39 23 75 39 80 36 6 -4 7 50 4 142 -12 359 -24 636
-28 640 -2 3 -145 33 -318 68 -243 50 -874 185 -1025 220 -12 3 -24 13 -28 23
-3 11 28 273 69 583 41 310 80 607 86 659 15 127 46 390 46 389 -1 -1 -34 -11
-74 -22z"/>
<path d="M3521 3650 c-35 -11 -66 -21 -68 -24 -5 -4 -108 -769 -187 -1379 -24
-188 -41 -345 -38 -349 4 -3 142 -36 307 -72 787 -171 1041 -228 1047 -235 5
-4 15 -184 24 -401 9 -217 17 -397 19 -398 4 -4 118 58 149 81 18 14 19 24 6
395 -7 210 -16 385 -19 389 -6 9 -643 149 -896 199 -175 34 -403 83 -442 95
-17 6 -33 16 -36 23 -4 9 184 1447 217 1664 6 37 5 38 -83 12z"/>
<path d="M3070 3526 c-1044 -288 -1186 -327 -1725 -470 -534 -141 -1128 -306
-1171 -325 -61 -27 -110 -76 -144 -143 -26 -53 -30 -72 -30 -143 0 -54 4 -86
12 -92 17 -14 412 -228 733 -398 215 -114 467 -250 840 -455 68 -37 178 -95
310 -165 162 -85 561 -301 795 -430 113 -62 266 -144 340 -183 l135 -69 135
-271 c74 -149 138 -271 141 -271 3 -1 210 118 460 262 250 145 494 285 542
311 48 26 89 51 91 54 2 4 -2 165 -10 357 -9 193 -14 371 -12 396 2 29 -1 45
-7 43 -6 -3 -289 57 -630 131 -341 74 -644 140 -673 147 -29 6 -56 16 -61 22
-6 7 0 92 15 216 27 220 191 1463 200 1518 5 23 3 32 -7 31 -8 0 -133 -33
-279 -73z"/>
<path d="M10095 3373 c-43 -82 -113 -211 -155 -288 -42 -77 -130 -241 -195
-365 -105 -200 -338 -637 -462 -868 l-45 -83 111 -392 c61 -216 111 -397 111
-404 0 -42 33 -34 576 146 806 267 1744 575 1877 616 64 21 117 39 117 41 0 2
-33 35 -72 72 -76 71 -564 530 -678 638 -294 277 -598 562 -664 624 -45 41
-160 150 -257 242 -97 93 -179 168 -181 168 -3 0 -40 -66 -83 -147z"/>
<path d="M16591 2135 c-18 -8 -38 -12 -45 -8 -6 3 -8 3 -4 -1 3 -4 -9 -28 -28
-53 -30 -39 -34 -52 -34 -104 0 -70 15 -104 65 -147 43 -38 69 -46 140 -40
155 13 221 205 106 313 -55 52 -134 68 -200 40z"/>
<path d="M22500 2134 c-76 -33 -110 -86 -110 -172 0 -73 38 -139 95 -166 56
-27 151 -19 198 17 42 32 77 100 77 150 0 129 -142 222 -260 171z"/>
<path d="M28821 2135 c-18 -8 -38 -12 -44 -8 -5 3 -7 1 -4 -4 4 -6 0 -17 -9
-24 -28 -23 -54 -87 -54 -133 0 -56 14 -93 48 -129 41 -43 75 -57 140 -57 50
0 65 5 101 31 83 59 105 168 52 251 -16 25 -26 50 -23 54 4 4 2 4 -5 0 -7 -4
-23 0 -37 9 -35 23 -124 29 -165 10z"/>
<path d="M33140 1261 l-20 -41 97 -45 c130 -61 136 -62 151 -29 7 14 11 27 10
29 -2 1 -41 23 -88 50 -47 26 -95 55 -107 62 -21 14 -23 12 -43 -26z"/>
<path d="M29711 1254 c-29 -36 -27 -60 5 -68 20 -5 30 -2 41 14 17 24 41 25
91 4 57 -24 118 -22 147 6 33 31 32 58 -2 66 -17 5 -28 3 -31 -5 -9 -28 -41
-31 -94 -11 -77 29 -131 27 -157 -6z"/>
<path d="M29763 1123 c-82 -46 -93 -61 -73 -93 8 -13 18 -12 72 9 35 14 77 24
93 24 17 0 58 -10 93 -24 54 -21 64 -22 72 -9 22 35 10 50 -72 92 -46 24 -87
44 -93 45 -5 1 -47 -18 -92 -44z"/>
<path d="M33068 1127 c-94 -52 -92 -50 -84 -82 8 -32 24 -31 106 3 l65 28 74
-30 c71 -29 74 -29 87 -11 8 10 14 25 14 32 0 11 -145 94 -175 100 -5 1 -45
-17 -87 -40z"/>
<path d="M22475 1121 l-120 -39 0 -34 0 -34 124 23 c68 13 126 25 128 27 3 2
0 21 -6 42 -6 20 -8 41 -5 46 7 10 18 13 -121 -31z"/>
<path d="M33070 968 c0 -4 12 -32 27 -63 l27 -55 -41 -83 c-23 -45 -99 -191
-168 -325 -69 -133 -125 -246 -125 -250 0 -4 24 -6 53 -4 l53 4 42 84 42 84
182 0 183 0 35 -82 c19 -46 34 -85 33 -88 -1 -3 23 -3 53 -2 30 2 54 8 54 13
0 6 -55 126 -122 267 -67 141 -145 311 -173 377 l-52 120 -52 5 c-28 3 -51 2
-51 -2z m167 -365 c35 -75 61 -138 59 -140 -2 -2 -62 -2 -135 -1 l-131 3 67
138 c37 75 69 137 72 137 3 0 34 -62 68 -137z"/>
<path d="M21200 578 l0 -388 50 0 50 0 0 170 0 170 235 0 236 0 -3 -172 -3
-173 48 3 47 4 0 384 0 384 -45 0 -45 0 0 -170 0 -170 -235 0 -235 0 0 169 0
169 -50 4 -50 3 0 -387z"/>
<path d="M22403 953 c3 -10 13 -38 23 -63 l17 -45 -41 -85 c-23 -47 -95 -188
-162 -315 -66 -126 -120 -236 -120 -242 0 -9 17 -13 51 -13 l50 0 40 85 39 85
183 0 183 0 38 -84 38 -84 54 -4 c50 -3 53 -2 48 17 -4 11 -81 178 -171 370
-91 193 -169 360 -174 373 -7 18 -16 22 -55 22 -40 0 -46 -3 -41 -17z m153
-351 l61 -137 -130 -3 c-71 -1 -132 -1 -134 2 -5 5 129 276 137 276 3 0 32
-62 66 -138z"/>
<path d="M25305 951 c-27 -10 -65 -27 -84 -39 -19 -12 -39 -18 -44 -15 -6 3
-7 2 -4 -4 4 -6 -5 -21 -18 -33 -76 -71 -120 -192 -112 -304 7 -110 39 -179
116 -257 77 -77 145 -108 256 -116 128 -10 242 34 328 126 52 55 75 96 93 166
54 200 -56 407 -250 476 -74 25 -211 26 -281 0z m245 -88 c119 -38 192 -146
193 -285 1 -69 -3 -85 -34 -145 -41 -81 -97 -125 -189 -149 -105 -27 -200 -1
-283 75 -63 58 -91 127 -91 221 -1 141 80 250 214 291 44 13 136 9 190 -8z"/>
<path d="M26748 963 l-48 -4 -2 -244 -3 -245 -233 245 c-228 238 -235 245
-273 245 l-39 0 0 -385 0 -385 45 0 45 0 0 313 0 312 68 -70 c38 -38 141 -147
230 -241 l162 -172 0 -70 0 -70 50 -4 50 -3 0 393 c0 215 -1 391 -2 390 -2 -1
-24 -3 -50 -5z"/>
<path d="M27363 956 c-181 -59 -298 -255 -264 -442 34 -185 179 -317 364 -331
173 -13 316 76 368 230 16 46 21 52 46 52 27 0 28 1 25 48 l-4 47 -189 0 -189
0 0 -45 0 -45 116 0 c115 0 115 0 109 -22 -12 -40 -59 -102 -103 -132 -36 -26
-53 -30 -126 -34 -74 -4 -91 -1 -137 20 -78 36 -114 71 -150 143 -29 60 -31
70 -27 147 5 94 26 146 82 201 57 57 120 82 206 82 80 0 125 -13 178 -52 34
-26 82 -108 82 -143 0 -17 6 -20 51 -20 l52 0 -7 41 c-9 56 -47 127 -90 168
-19 19 -33 37 -31 41 3 4 -1 7 -8 7 -6 -1 -34 10 -62 23 -40 19 -69 25 -150
27 -65 2 -115 -2 -142 -11z"/>
<path d="M29770 967 c0 -3 11 -30 25 -61 l25 -57 -160 -318 c-88 -174 -160
-323 -160 -329 0 -8 18 -12 49 -12 l48 0 39 85 39 85 186 0 186 0 38 -85 38
-85 49 0 c26 0 48 4 48 9 0 5 -38 90 -84 188 -46 98 -95 205 -109 238 -14 33
-55 123 -90 200 l-65 140 -51 3 c-28 2 -51 1 -51 -1z m170 -372 l60 -130 -65
-3 c-35 -2 -96 -2 -135 0 l-71 3 67 137 c38 76 72 134 76 130 4 -4 35 -66 68
-137z"/>
<path d="M20350 576 l0 -384 50 -4 50 -3 0 388 0 387 -50 0 -50 0 0 -384z"/>
<path d="M20769 941 c-8 -10 -74 -90 -146 -176 -103 -122 -133 -164 -133 -186
0 -29 28 -67 210 -286 l85 -102 88 -1 87 0 0 48 0 47 -58 -3 -58 -4 -49 59
c-27 32 -52 60 -55 63 -3 3 -38 42 -78 88 -70 80 -83 104 -62 117 18 11 300
336 300 346 0 5 -26 9 -59 9 -46 0 -62 -4 -72 -19z"/>
<path d="M23010 915 l0 -45 120 0 120 0 1 -337 c1 -186 1 -340 1 -343 0 -3 24
-3 54 -2 l54 4 0 339 0 339 125 0 125 0 0 45 0 45 -300 0 -300 0 0 -45z"/>
<path d="M24140 951 c0 -4 39 -100 86 -212 97 -231 216 -529 217 -544 0 -6 22
-8 55 -5 l54 5 149 375 c82 206 149 379 149 383 0 4 -23 7 -52 5 l-52 -3 -121
-317 c-66 -175 -122 -318 -125 -318 -6 0 -201 487 -231 578 l-21 62 -54 0
c-30 0 -54 -4 -54 -9z"/>
<path d="M28618 573 l-3 -388 190 6 c201 5 231 11 318 62 83 49 144 141 167
251 35 168 -51 341 -208 418 l-66 33 -198 3 -198 3 -2 -388z m417 270 c56 -30
99 -73 126 -124 28 -55 37 -169 19 -235 -19 -69 -78 -137 -147 -170 -53 -26
-69 -29 -185 -33 l-128 -3 0 297 0 297 138 -4 c117 -3 143 -7 177 -25z"/>
<path d="M30480 575 l0 -385 50 0 50 0 0 308 1 307 117 -121 c64 -66 165 -172
225 -236 l107 -115 0 -72 0 -71 50 0 50 0 0 385 0 385 -50 0 -50 0 0 -245 0
-245 -148 152 c-82 84 -186 195 -232 246 -81 89 -85 92 -127 92 l-43 0 0 -385z"/>
<path d="M31920 791 l0 -171 -40 0 -40 0 0 -40 0 -40 40 0 40 0 0 -175 0 -175
168 0 c111 0 185 5 220 14 122 33 218 118 262 233 32 80 32 204 0 286 -30 80
-111 166 -192 203 -62 28 -67 29 -260 32 l-198 4 0 -171z m388 64 c123 -52
185 -146 184 -279 -1 -119 -58 -213 -160 -263 -52 -26 -68 -28 -189 -31 l-133
-4 0 132 0 131 93 -3 92 -3 0 45 0 45 -92 -3 -93 -3 0 125 0 126 130 0 c95 0
141 -4 168 -15z"/>
<path d="M33770 717 c0 -268 9 -327 58 -400 83 -124 266 -172 405 -107 63 30
129 104 156 173 19 54 21 76 21 317 l0 260 -49 0 -50 0 -3 -262 c-3 -247 -4
-265 -25 -303 -41 -77 -103 -115 -188 -115 -93 0 -156 37 -198 115 -20 37 -22
57 -25 303 l-4 262 -49 0 -49 0 0 -243z"/>
</g>
</svg>
